<?xml version="1.0" standalone="no"?>
<!DOCTYPE svg PUBLIC "-//W3C//DTD SVG 20010904//EN"
 "http://www.w3.org/TR/2001/REC-SVG-20010904/DTD/svg10.dtd">
<svg version="1.0" xmlns="http://www.w3.org/2000/svg"
 width="900.000000pt" height="900.000000pt" viewBox="0 0 900.000000 900.000000"
 preserveAspectRatio="xMidYMid meet">
<metadata>
Created by potrace 1.14, written by Peter Selinger 2001-2017
</metadata>
<g transform="translate(0.000000,900.000000) scale(0.100000,-0.100000)"
fill="#000000" stroke="none">
<path d="M5010 7348 c0 -11 59 -94 113 -158 121 -143 208 -206 323 -234 43
-10 87 -33 164 -86 93 -64 101 -71 68 -66 -32 6 -39 3 -49 -16 l-12 -22 -17
22 c-23 28 -33 28 -24 0 l6 -23 -23 22 c-28 25 -54 24 -191 -11 -109 -28 -210
-66 -215 -82 -5 -16 20 -21 217 -44 179 -21 454 -27 523 -11 36 9 40 7 122
-62 47 -38 84 -72 82 -74 -3 -2 -17 1 -32 7 -25 9 -27 9 -15 -5 10 -13 11 -18
1 -28 -10 -9 -17 -7 -32 12 -14 18 -19 19 -19 7 0 -18 -15 -21 -26 -5 -3 6
-15 9 -25 6 -11 -3 -23 2 -28 11 -7 13 -12 14 -24 4 -17 -15 -47 -6 -47 14 0
8 -7 14 -15 14 -8 0 -15 -5 -15 -11 0 -11 -16 -9 -54 7 -16 6 -18 4 -14 -14 5
-16 2 -19 -11 -14 -9 3 -22 12 -30 20 -16 16 -86 11 -103 -6 -12 -12 57 -48
257 -137 182 -81 253 -103 371 -117 l103 -12 58 -74 c79 -101 100 -134 79
-126 -10 4 -16 1 -16 -10 0 -15 -6 -15 -45 0 -11 4 -22 8 -25 9 -33 12 -71 34
-70 41 1 5 -3 10 -9 12 -7 2 -9 -4 -5 -15 4 -14 1 -12 -13 5 -13 16 -33 25
-58 27 -22 2 -41 8 -43 14 -2 5 -10 7 -18 4 -8 -3 -14 0 -14 7 0 7 -6 10 -14
7 -8 -3 -22 3 -31 13 -10 11 -22 17 -27 14 -5 -3 -15 1 -21 10 -14 19 -77 34
-77 18 0 -10 245 -220 365 -312 80 -62 225 -149 278 -168 56 -19 59 -24 117
-173 31 -80 37 -104 28 -118 -13 -21 -12 -21 -97 62 -27 26 -53 47 -58 47 -5
0 -27 15 -50 34 -22 19 -53 38 -69 42 -16 4 -37 18 -47 31 -10 13 -25 23 -33
23 -8 0 -17 7 -20 15 -4 8 -11 15 -17 15 -6 0 -21 12 -32 26 -12 16 -28 25
-39 23 -16 -3 -9 -16 39 -74 69 -84 116 -152 183 -265 64 -108 156 -208 265
-288 l85 -64 11 -61 c12 -69 31 -237 31 -278 0 -22 -5 -26 -25 -26 -19 -1 -27
6 -32 26 -3 14 -14 37 -25 50 -12 16 -15 27 -8 31 12 7 3 40 -11 40 -4 0 -23
22 -41 50 -18 27 -35 45 -39 39 -3 -6 -9 1 -13 15 -3 14 -13 26 -21 26 -8 0
-15 5 -15 10 0 6 -7 10 -15 10 -9 0 -14 8 -12 23 1 16 -3 22 -18 22 -11 0 -21
8 -23 18 -2 9 -8 17 -13 17 -5 0 -9 4 -9 10 0 8 -19 40 -70 115 -29 42 -26 26
25 -141 58 -189 117 -350 164 -439 35 -67 124 -195 171 -243 20 -22 22 -30 16
-93 -4 -38 -15 -117 -26 -176 -10 -60 -15 -112 -12 -118 7 -12 -30 15 -40 30
-4 6 -8 19 -8 30 0 11 -6 32 -14 47 -8 15 -17 42 -21 60 -4 18 -16 44 -26 57
-11 13 -19 29 -19 36 0 6 -11 22 -25 35 -18 17 -22 26 -13 31 8 5 -1 24 -30
63 -23 30 -42 64 -42 76 0 11 -4 20 -10 20 -5 0 -10 10 -10 23 0 24 -22 92
-33 103 -19 19 8 -494 32 -622 18 -91 68 -214 128 -306 16 -26 16 -29 -7 -85
-37 -91 -129 -276 -146 -293 -12 -12 -16 -13 -23 -1 -5 7 -6 21 -4 31 3 10 0
21 -6 24 -16 10 -13 26 4 26 15 0 21 25 7 33 -9 6 -7 96 3 119 4 9 3 23 -2 30
-17 27 -31 123 -19 130 8 6 8 8 -1 8 -7 0 -15 17 -19 38 -4 20 -11 42 -16 49
-5 7 -9 22 -7 35 2 21 -3 60 -17 126 -8 38 -21 16 -28 -47 -4 -33 -27 -149
-52 -258 -61 -267 -68 -405 -30 -537 31 -103 34 -92 -68 -210 -34 -39 -71 -83
-82 -98 -21 -27 -22 -27 -39 -8 -20 22 -13 53 10 44 8 -3 15 -1 15 5 0 7 -7
14 -15 17 -17 7 -20 31 -4 36 5 2 12 27 14 56 3 41 0 54 -11 59 -12 4 -10 9
11 23 21 14 23 18 11 23 -17 7 -21 37 -7 52 5 6 6 34 2 63 -7 48 -5 77 14 187
5 33 -3 22 -53 -70 -32 -60 -89 -161 -126 -222 -106 -179 -121 -229 -134 -437
l-7 -109 -110 -79 c-60 -42 -117 -81 -125 -85 -8 -3 -18 -11 -22 -17 -5 -7
-13 -4 -22 9 -11 16 -12 21 -2 23 15 3 32 34 40 74 4 19 13 28 26 28 23 0 36
18 23 31 -15 15 26 119 46 119 14 1 14 2 -1 14 -10 7 -18 18 -18 24 0 6 8 15
18 21 14 8 15 13 5 30 -17 27 -16 31 2 31 8 0 15 7 15 15 0 8 5 15 11 15 8 0
8 4 1 13 -12 14 -5 57 9 57 5 0 9 8 9 17 0 22 -298 -271 -383 -377 -68 -84
-111 -168 -127 -247 l-11 -53 -105 -32 c-58 -18 -114 -41 -126 -52 -15 -14
-25 -17 -36 -9 -24 15 -26 33 -3 33 11 0 23 5 26 10 3 6 -1 10 -9 10 -9 0 -16
5 -16 10 0 13 6 13 31 0 15 -8 19 -7 19 5 0 8 6 15 14 15 18 0 47 40 39 53 -3
6 -1 7 4 4 14 -9 47 29 37 44 -4 7 -3 10 3 6 6 -4 16 0 23 8 10 12 8 16 -11
24 l-24 10 26 0 c14 1 34 9 43 20 16 17 16 19 -4 24 -11 3 -20 11 -20 17 0 8
9 10 25 6 27 -7 32 2 13 23 -11 11 -10 14 0 18 6 3 10 9 6 14 -3 5 2 19 10 31
26 37 19 38 -51 7 -37 -17 -114 -48 -170 -70 -137 -54 -180 -79 -243 -142 -64
-63 -130 -161 -130 -193 0 -20 -6 -24 -49 -30 -40 -5 -48 -9 -44 -23 6 -14 4
-14 -14 1 -24 22 -53 23 -53 3 0 -22 -40 -19 -40 3 -1 16 -2 16 -14 -1 -14
-18 -14 -18 -19 0 -4 14 -5 14 -6 2 -1 -12 -12 -16 -45 -16 -39 -1 -45 2 -50
23 -4 13 -13 24 -21 24 -8 0 -15 8 -15 18 0 10 -5 23 -12 30 -7 7 -9 12 -4 12
4 0 -7 20 -25 45 -18 25 -38 45 -46 45 -7 0 -13 8 -13 18 0 20 -33 52 -54 52
-8 0 -17 7 -20 16 -5 12 -13 14 -32 10 -21 -6 -25 -4 -21 8 6 14 -5 21 -17 14
-2 -2 -12 4 -22 13 -11 9 -48 22 -83 29 -47 10 -65 18 -69 32 -3 14 -8 16 -17
8 -9 -8 -14 -6 -19 5 -3 8 -12 15 -21 15 -19 0 -75 40 -75 53 0 5 -10 18 -22
29 -21 18 -23 18 -26 3 -5 -25 59 -149 117 -225 27 -36 79 -94 116 -129 61
-59 64 -63 36 -58 -26 6 -31 3 -31 -13 0 -24 -28 -27 -36 -5 -5 11 -10 13 -19
5 -9 -8 -15 -8 -20 0 -3 5 -21 10 -40 10 -21 0 -35 6 -39 16 -4 10 -14 14 -26
11 -11 -3 -20 -1 -20 5 0 6 -9 8 -20 5 -25 -6 -47 27 -56 85 -3 24 -13 53 -20
65 -8 12 -11 28 -8 36 3 8 -6 28 -20 45 -15 16 -26 35 -26 41 0 13 -35 33 -44
24 -3 -3 -6 5 -6 18 -1 16 -14 34 -40 54 -21 17 -39 35 -40 41 0 6 -11 17 -25
24 -13 7 -27 22 -31 33 -7 22 -79 97 -108 112 -21 11 -39 38 -82 125 -51 100
-42 -2 17 -208 26 -93 82 -216 126 -282 10 -14 11 -20 3 -12 -22 19 -32 14
-20 -9 7 -11 9 -23 6 -27 -3 -3 -6 0 -6 6 0 6 -17 16 -37 22 -37 12 -103 55
-145 94 -16 15 -22 16 -29 5 -6 -10 -11 -6 -18 14 -6 16 -15 25 -21 22 -5 -3
-10 1 -10 10 0 8 -6 18 -14 21 -8 3 -16 14 -19 25 -4 15 -2 19 9 15 12 -4 14
4 10 44 -3 29 -1 50 5 50 6 0 7 5 2 13 -4 6 -14 44 -21 82 -20 113 -23 124
-38 136 -8 6 -14 22 -14 34 0 12 -7 28 -15 35 -8 7 -15 21 -15 31 0 9 -7 24
-15 33 -8 8 -15 19 -15 25 0 6 -15 26 -34 46 -19 19 -30 38 -24 41 5 4 4 13
-5 22 -8 10 -19 31 -24 47 -6 17 -15 29 -21 28 -6 -2 -14 19 -18 45 -3 26 -13
62 -20 81 -8 18 -11 37 -8 42 3 5 0 9 -5 9 -14 0 -15 -422 0 -509 5 -35 16
-76 24 -91 14 -27 14 -28 -13 -26 -31 2 -92 41 -92 58 0 6 -30 39 -66 73 -54
52 -67 70 -71 103 -5 37 -4 40 28 52 33 12 33 13 10 19 -34 9 -36 25 -7 41 20
10 23 17 16 31 -6 10 -6 28 -2 41 9 26 8 60 -2 77 -4 7 0 11 13 11 18 0 19 2
4 31 -11 22 -12 33 -5 38 11 7 5 51 -7 51 -3 0 -7 19 -8 41 -1 45 -30 185 -43
210 -4 8 -6 29 -4 47 3 23 -2 35 -17 45 -18 13 -18 15 -3 21 16 6 15 8 -1 26
-15 17 -17 33 -13 115 3 52 2 92 -3 90 -15 -10 -51 -122 -80 -250 -37 -163
-46 -295 -26 -392 11 -60 12 -71 0 -62 -10 9 -13 8 -13 -5 0 -34 -36 6 -73 82
-21 43 -38 82 -38 87 -1 6 -10 22 -20 37 -11 14 -22 40 -25 57 -4 17 -13 36
-20 42 -8 6 -14 24 -14 40 0 15 -4 31 -10 34 -5 3 -10 11 -10 18 0 6 6 3 13
-8 13 -17 14 -17 20 5 3 13 10 19 17 15 13 -8 52 24 44 36 -2 4 -11 6 -19 2
-19 -7 -19 4 0 23 8 8 22 14 31 12 9 -2 19 3 21 10 3 7 -4 12 -19 12 l-23 1
24 13 c18 10 20 15 10 19 -11 5 -10 9 5 21 10 8 22 13 27 11 4 -3 10 -1 13 4
4 5 -3 12 -13 16 -25 8 -17 35 10 35 10 0 19 5 19 10 0 6 -4 10 -10 10 -12 0
-14 56 -2 63 4 3 7 29 7 59 0 29 3 55 7 58 4 3 9 53 10 110 2 58 7 108 13 112
5 4 2 14 -8 26 -21 23 -22 36 -2 28 12 -4 15 3 15 30 0 19 5 67 11 105 6 39 8
73 5 76 -9 9 -122 -173 -182 -292 -57 -114 -84 -216 -84 -316 0 -27 -2 -49 -4
-49 -2 0 -15 6 -28 13 -18 9 -23 19 -22 45 1 18 -2 34 -6 37 -5 3 -13 38 -20
78 -6 39 -16 95 -22 123 -11 55 -5 116 17 146 12 18 13 18 20 1 6 -16 10 -14
36 17 34 40 35 47 11 74 -17 20 -17 20 10 3 26 -16 28 -16 43 6 14 20 14 23
-2 34 -13 10 -14 13 -2 14 8 1 21 2 29 3 8 0 14 9 14 18 -1 10 3 16 8 15 6 -1
13 4 15 11 3 6 0 12 -6 12 -6 0 -11 5 -11 10 0 6 11 10 25 10 28 0 35 27 9 37
-22 8 5 25 29 17 16 -5 17 -3 6 14 -18 29 -4 88 24 96 17 4 19 8 9 18 -19 19
-14 36 16 46 15 6 21 11 15 11 -15 1 -18 47 -4 55 5 3 7 19 5 36 -2 20 1 30
10 30 18 0 29 42 13 52 -11 8 0 21 25 30 4 2 8 24 9 51 2 35 6 47 18 47 11 0
16 9 16 29 0 25 -2 27 -15 18 -95 -74 -259 -261 -299 -340 -17 -34 -40 -93
-51 -131 -11 -38 -22 -71 -25 -74 -3 -3 -13 2 -23 11 -14 14 -14 21 -4 37 7
12 8 20 2 20 -14 0 -13 43 2 58 9 9 9 12 0 12 -18 0 -14 38 4 48 10 6 14 14 9
22 -4 7 -9 33 -11 59 -3 34 -1 42 7 31 9 -12 10 -11 6 7 -3 13 -1 25 4 28 4 3
6 19 2 35 -3 17 -1 30 4 30 5 0 18 7 29 15 19 15 19 15 0 8 -16 -5 -18 -3 -13
11 4 10 7 20 7 22 0 2 5 4 11 4 5 0 7 -4 4 -10 -3 -5 3 -10 14 -10 39 0 251
188 251 223 0 10 4 16 9 13 4 -3 17 4 27 15 18 20 18 21 -1 35 -18 13 -17 14
11 14 31 0 69 40 45 48 -6 2 -11 11 -11 19 0 9 6 13 15 10 7 -3 24 2 36 12
l23 18 -24 13 c-25 13 -25 13 15 24 22 7 38 15 35 18 -3 4 4 14 15 23 19 15
19 15 1 13 -10 -2 -21 3 -23 10 -3 7 5 12 20 12 14 0 33 8 43 18 17 16 17 17
-9 20 -40 5 -33 19 13 27 44 7 67 34 47 54 -9 9 -6 17 13 32 l25 20 -24 -7
c-27 -7 -187 -98 -267 -150 -74 -49 -140 -109 -175 -160 -16 -24 -37 -44 -45
-44 -23 0 -28 29 -9 50 9 10 14 24 10 30 -4 6 -1 17 5 25 7 8 9 15 4 15 -5 0
-2 5 6 10 9 6 14 21 12 40 -3 25 0 30 17 30 23 0 27 10 10 27 -14 14 10 43 35
43 8 0 20 9 26 20 6 10 26 23 45 29 105 29 303 159 510 334 165 140 155 130
123 125 -22 -4 -28 -1 -28 13 0 11 -1 19 -2 19 -2 0 -46 -11 -98 -25 -157 -43
-360 -150 -360 -191 0 -8 -4 -14 -10 -14 -5 0 -10 11 -10 25 0 14 -4 25 -10
25 -5 0 -10 5 -10 11 0 6 9 8 20 4 18 -6 20 -3 14 19 -5 23 -3 26 18 26 28 0
71 40 51 47 -20 7 -15 23 6 23 22 0 69 52 52 58 -6 2 -11 8 -11 14 0 5 8 7 19
3 10 -3 24 1 31 10 8 10 31 15 69 15 58 0 196 28 267 53 23 9 124 53 224 98
186 85 201 98 101 93 -25 -1 -40 0 -33 3 17 7 15 33 -3 33 -8 0 -15 -5 -15
-11 0 -11 -16 -9 -54 7 -16 6 -18 4 -14 -14 8 -27 -2 -28 -32 -2 -13 11 -27
20 -32 20 -4 0 -8 -9 -8 -20 0 -11 -4 -20 -9 -20 -5 0 -7 9 -4 20 7 28 -14 25
-23 -2 l-8 -23 -6 25 -6 24 -22 -22 c-17 -17 -22 -18 -22 -7 0 12 -7 14 -27 9
-38 -9 -43 -13 -43 -30 0 -17 -17 -19 -23 -1 -3 8 -9 6 -20 -7 -14 -19 -16
-19 -31 -3 -20 20 -13 37 15 37 10 0 19 5 19 10 0 6 4 9 8 8 5 -2 42 23 82 55
54 43 79 57 94 53 109 -30 253 -31 486 -2 63 8 152 17 197 21 46 4 81 11 78
15 -3 4 -29 13 -57 20 -29 6 -60 14 -68 18 -8 3 -26 7 -39 8 -13 2 -28 8 -31
15 -4 6 -12 9 -18 5 -6 -3 -14 -1 -17 5 -4 5 -13 8 -20 5 -7 -2 -24 2 -39 9
-14 8 -26 10 -26 6 0 -4 -13 -6 -29 -3 -22 3 -28 8 -24 21 4 14 3 14 -10 -1
-18 -23 -23 -22 -50 3 -16 15 -30 19 -52 14 -16 -3 -39 -7 -50 -9 -11 -1 -22
-13 -26 -27 -5 -20 -7 -21 -13 -7 -4 9 -14 14 -22 11 -15 -5 -18 5 -8 31 3 9
15 16 26 16 10 0 54 27 96 60 61 47 86 60 112 60 55 0 137 26 193 60 67 41
150 117 137 125 -5 3 -10 11 -10 17 0 7 5 6 15 -2 11 -10 20 -5 47 26 18 21
32 44 30 52 -2 8 1 11 6 8 5 -3 20 6 33 20 17 18 19 23 6 18 -10 -3 -17 -1
-17 5 0 6 4 11 10 11 5 0 7 7 4 15 -4 8 -1 22 6 30 7 9 11 17 9 20 -10 9 -289
-79 -348 -110 -73 -37 -161 -147 -161 -200 0 -8 -44 -44 -100 -80 -56 -36
-103 -72 -106 -80 -4 -8 -12 -15 -19 -15 -7 0 -15 -5 -17 -10 -2 -7 -10 -6
-22 3 -22 16 -14 37 15 37 22 0 24 11 7 28 -9 9 -9 12 0 12 7 0 24 8 38 17 23
15 24 18 10 29 -19 14 -10 48 10 40 8 -3 14 1 14 8 0 8 -7 17 -16 20 -8 3 -13
10 -9 15 3 6 13 7 21 4 13 -5 15 -1 9 16 -6 20 -4 22 14 16 27 -8 27 -1 -1 27
-17 17 -19 23 -7 26 20 7 32 30 34 66 1 17 5 40 10 50 10 23 12 24 -110 -58
-232 -155 -356 -354 -315 -506 l12 -44 -110 -105 c-61 -59 -115 -114 -119
-124 -9 -17 -10 -17 -28 3 -19 21 -19 21 3 27 21 5 22 7 7 29 -16 25 -7 38 19
28 19 -7 21 7 4 24 -9 9 -9 20 1 47 7 19 10 44 6 54 -4 13 -1 20 11 23 17 3
17 4 0 20 -13 14 -15 22 -6 37 6 12 8 59 6 117 -3 56 0 106 5 117 14 24 4 34
-17 16 -38 -31 -196 -254 -227 -321 -58 -122 -71 -268 -34 -392 14 -48 31 -55
65 -25 30 28 36 38 -74 -123 -76 -110 -124 -197 -124 -224 0 -15 -2 -15 -21 2
-14 13 -19 28 -18 54 2 20 -1 42 -5 49 -5 8 -4 16 2 20 11 6 9 41 -4 85 -4 12
-2 16 5 12 6 -4 11 -1 11 8 0 8 -5 18 -10 21 -6 4 -8 11 -4 16 3 5 2 23 -1 41
-5 22 -10 27 -16 17 -4 -7 -11 -10 -15 -6 -4 4 -2 13 4 19 17 17 15 43 -3 58
-9 8 -13 21 -9 32 3 10 1 24 -4 31 -13 16 -25 91 -24 152 l0 50 -29 -85 c-103
-297 -139 -469 -120 -584 11 -70 92 -256 112 -256 5 0 -9 -51 -31 -112 -48
-140 -65 -198 -62 -220 1 -10 0 -18 -3 -18 -11 0 -45 41 -40 49 2 5 -2 14 -10
21 -8 7 -15 28 -15 46 0 19 -5 34 -11 34 -6 0 -8 9 -4 20 4 12 0 26 -9 36 -9
8 -16 26 -16 40 0 13 -5 24 -10 24 -6 0 -15 12 -20 26 -6 15 -14 22 -22 18 -7
-5 -9 -2 -5 9 7 19 -17 72 -49 106 -22 24 -44 89 -44 130 0 33 -17 25 -24 -11
-3 -18 -9 -134 -12 -258 -7 -250 1 -318 52 -431 28 -63 106 -144 148 -155 21
-5 22 -9 15 -72 -4 -37 -10 -120 -14 -184 -6 -96 -11 -120 -26 -134 -18 -16
-19 -16 -19 3 0 11 -11 30 -24 42 -13 12 -26 35 -29 50 -4 17 -14 31 -26 34
-14 3 -18 11 -14 25 3 12 -2 25 -15 33 -10 8 -25 27 -33 44 -8 16 -24 34 -36
41 -13 6 -20 14 -17 17 9 9 -15 37 -49 58 -26 15 -92 94 -117 138 -22 40 -19
-10 10 -156 40 -203 56 -263 87 -343 57 -143 152 -255 272 -319 l58 -30 13
-87 c7 -48 22 -127 34 -175 12 -49 20 -92 17 -94 -12 -12 -52 -3 -58 13 -9 22
-23 36 -45 45 -10 3 -20 18 -24 32 -3 14 -12 25 -20 25 -8 0 -14 5 -14 11 0 6
-8 9 -17 7 -10 -2 -26 7 -37 20 -15 18 -21 21 -27 10 -6 -9 -9 -3 -10 17 0 25
-2 27 -8 10 -8 -19 -8 -19 -20 3 -6 12 -20 22 -29 22 -10 0 -34 16 -54 36 -21
19 -42 33 -47 30 -5 -4 -12 3 -16 14 -3 11 -10 20 -15 20 -5 0 -24 16 -42 36
-18 20 -41 45 -51 56 -39 42 -27 3 47 -149 97 -198 175 -337 226 -402 76 -96
272 -216 362 -223 31 -3 36 -9 80 -98 25 -52 65 -128 88 -169 27 -47 37 -72
27 -68 -11 4 -14 2 -10 -9 7 -19 -30 -19 -47 0 -6 8 -18 12 -26 9 -8 -3 -14 1
-14 10 0 8 -7 20 -15 27 -13 10 -15 9 -16 -11 l0 -24 -11 23 c-6 12 -15 22
-19 22 -4 0 -21 12 -38 26 -17 14 -35 23 -41 19 -5 -3 -10 -3 -10 2 0 8 -49
27 -95 38 -11 3 -25 12 -32 21 -7 9 -18 14 -26 11 -8 -3 -19 -1 -23 3 -5 5
-25 10 -44 11 -19 2 -47 11 -62 21 -14 10 -29 18 -33 18 -4 0 -20 11 -37 25
-16 14 -36 25 -45 25 -20 0 -8 -19 100 -154 156 -195 321 -340 445 -391 87
-35 214 -58 281 -51 l56 6 161 -159 c88 -88 152 -155 143 -150 -26 14 -30 11
-23 -16 5 -22 4 -24 -12 -18 -11 4 -28 15 -38 25 -11 10 -25 18 -32 18 -6 0
-17 7 -25 16 -7 8 -21 13 -31 11 -10 -3 -21 -1 -24 4 -3 5 -12 9 -21 9 -9 0
-25 7 -35 17 -17 15 -18 15 -18 0 0 -21 -19 -22 -48 -1 -12 8 -21 12 -20 7 5
-15 -20 -12 -70 8 -33 13 -35 12 -27 -19 l6 -27 -30 34 c-16 18 -34 30 -40 26
-6 -3 -11 0 -11 7 -1 8 -7 5 -16 -7 -14 -19 -15 -19 -20 3 -6 22 -24 31 -24
12 0 -15 -26 -12 -40 5 -16 19 -34 19 -26 0 8 -21 -30 -14 -47 9 -8 11 -20 16
-28 13 -10 -4 -10 -6 3 -6 11 -1 15 -6 11 -17 -5 -13 -9 -12 -28 6 -17 16 -33
21 -65 18 l-42 -3 129 -95 c287 -212 460 -284 678 -283 107 1 152 10 235 46
35 15 36 15 110 -30 82 -50 283 -153 299 -153 5 0 12 -3 15 -8 2 -4 -13 -6
-35 -4 -37 4 -52 -9 -29 -23 13 -8 13 -35 1 -35 -5 0 -15 13 -23 30 -14 32
-28 40 -28 15 0 -19 -16 -20 -23 -1 -3 7 -15 16 -27 19 -17 4 -19 3 -10 -8 7
-8 8 -20 4 -26 -5 -9 -9 -7 -15 7 -4 13 -18 20 -39 22 -19 1 -29 -1 -25 -8 14
-22 -7 -29 -25 -8 -19 23 -19 23 -35 3 -15 -17 -16 -18 -11 -2 7 22 -10 20
-239 -23 -82 -16 -179 -34 -215 -40 -97 -17 -113 -21 -108 -25 9 -9 366 -114
444 -130 116 -25 325 -23 426 4 95 25 140 47 201 101 l47 42 119 -31 c66 -16
143 -33 173 -37 l53 -7 -76 -24 c-42 -12 -204 -87 -360 -165 l-284 -143 85 -3
c103 -4 340 14 430 33 196 42 329 105 425 203 l71 72 88 0 87 0 92 -81 c108
-96 127 -106 277 -153 160 -49 268 -66 465 -71 155 -5 167 -4 135 9 -19 8 -44
15 -56 15 -11 1 -29 9 -40 19 -10 10 -32 19 -48 20 -17 1 -33 7 -37 13 -4 7
-16 9 -27 7 -20 -6 -62 23 -62 41 0 15 -84 50 -91 39 -4 -6 -10 -1 -14 11 -3
11 -18 24 -33 28 -15 3 -30 11 -34 17 -6 8 -11 7 -17 -3 -6 -9 -11 -10 -15 -2
-9 14 -79 46 -133 60 -23 6 -53 17 -67 25 -39 20 -19 30 114 55 63 13 147 33
187 46 47 15 70 18 67 10 -12 -31 151 -128 256 -153 135 -32 335 -24 480 20
214 64 299 92 294 100 -3 4 -9 6 -14 3 -5 -3 -19 -1 -33 4 -16 6 -28 6 -35 -1
-7 -7 -14 -4 -24 11 -15 25 -28 27 -28 4 0 -14 -2 -15 -17 -1 -10 8 -26 16
-35 16 -10 1 -30 2 -44 3 -14 1 -28 8 -31 16 -5 12 -8 11 -23 -2 -14 -13 -19
-13 -29 -2 -7 9 -22 12 -38 9 -15 -3 -23 -1 -20 5 3 5 2 15 -4 23 -7 12 -9 10
-9 -9 0 -19 -3 -21 -15 -11 -8 6 -19 9 -25 5 -6 -4 -20 1 -31 11 -16 14 -19
14 -19 2 0 -24 -30 -17 -36 9 -7 28 -20 30 -27 3 -7 -27 -23 -25 -31 3 -7 21
-7 21 -15 2 -8 -19 -8 -19 -20 3 -15 28 -31 29 -23 0 3 -14 2 -19 -6 -14 -7 4
-12 14 -12 22 0 12 -10 13 -47 9 -27 -4 -56 -9 -66 -11 -10 -3 -34 -7 -53 -9
-33 -3 -61 -15 -36 -15 7 0 12 -5 12 -11 0 -5 -5 -7 -12 -3 -6 4 -17 0 -23
-10 -11 -14 -14 -14 -24 -2 -8 10 -9 16 -1 21 15 9 12 35 -4 35 -8 0 -17 4
-20 9 -7 11 34 2 51 -11 22 -17 276 114 477 247 l29 19 -14 -22 c-30 -47 42
-87 179 -98 171 -14 339 38 557 174 204 127 271 183 211 174 -13 -1 -16 2 -12
13 4 11 -2 15 -24 15 -22 0 -30 -5 -30 -17 -1 -16 -2 -16 -16 2 -13 17 -16 18
-24 5 -5 -8 -10 -19 -10 -23 0 -5 -5 -5 -11 -2 -6 4 -8 13 -5 20 4 11 -7 12
-52 8 -31 -3 -58 -10 -60 -14 -2 -5 -13 -4 -24 2 -11 6 -27 8 -36 4 -15 -6
-93 -16 -132 -17 -8 0 -56 -10 -107 -23 -114 -30 -223 -78 -223 -99 0 -20 -10
-20 -35 -3 -23 17 -12 37 20 37 35 0 281 240 271 265 -4 13 -2 16 9 12 9 -4
26 8 45 31 17 20 28 29 24 20 -7 -22 29 -38 84 -38 56 1 208 37 268 64 59 27
217 142 277 201 22 21 36 43 33 51 -3 9 1 14 13 14 25 0 57 48 42 63 -17 17
-13 29 7 23 12 -4 26 1 37 14 16 18 16 20 2 20 -10 0 -17 4 -17 9 0 5 8 7 19
4 10 -3 22 0 25 6 4 7 -1 11 -13 11 -12 0 -21 4 -21 8 0 5 12 8 28 7 18 -1 37
9 59 32 20 21 26 33 17 33 -8 0 -17 -7 -20 -15 -7 -17 -30 -20 -39 -5 -3 6 1
7 9 4 11 -4 16 0 16 10 0 9 7 16 15 16 8 0 15 5 15 11 0 6 -7 8 -16 5 -8 -3
-52 -15 -97 -26 -175 -44 -271 -84 -414 -171 -105 -64 -141 -97 -137 -122 2
-12 2 -16 -2 -9 -8 17 -24 15 -46 -5 -10 -9 -18 -11 -18 -6 0 6 7 16 15 23 17
14 20 40 5 40 -5 0 -10 5 -10 11 0 5 5 7 10 4 6 -3 13 1 16 10 4 9 15 15 27
13 26 -4 34 18 9 26 -11 4 -22 16 -25 26 -7 26 5 26 21 0 18 -29 32 -25 32 10
0 21 4 28 14 24 22 -9 30 16 10 31 -18 13 -17 14 13 21 32 6 50 28 33 39 -18
11 -10 34 12 37 12 2 24 9 26 17 3 10 0 12 -12 8 -11 -5 -16 -1 -16 13 0 10 9
21 19 25 13 4 17 12 13 27 -4 15 -1 19 9 16 8 -3 13 -11 11 -17 -1 -7 2 -10 8
-6 5 3 10 13 10 21 0 11 4 12 18 3 39 -25 214 55 325 147 63 52 80 74 57 74
-5 0 -10 4 -10 10 0 5 8 9 18 7 9 -1 18 2 19 6 1 5 10 15 19 22 15 11 16 15 5
29 -11 13 -10 17 5 22 35 13 44 25 34 44 -8 15 -5 22 11 33 13 9 16 17 10 22
-17 10 -14 48 4 41 8 -3 27 6 41 19 21 19 23 25 10 25 -26 0 -18 18 16 36 l33
17 -25 9 -25 9 25 19 c14 11 31 20 38 20 17 0 15 30 -3 30 -12 0 -13 4 -3 25
6 14 17 25 24 25 8 0 11 6 7 15 -3 9 3 25 13 37 16 19 12 18 -31 -7 -225 -129
-457 -308 -487 -376 -18 -41 -42 -34 -46 14 -2 28 0 37 12 37 14 0 14 3 4 20
-10 16 -10 24 0 40 6 11 12 33 12 50 0 20 5 30 15 30 18 0 20 17 3 23 -10 3
-10 9 -2 24 7 11 10 31 7 46 -4 17 -1 27 7 27 8 0 10 8 6 25 -6 22 -3 25 31
30 62 9 143 56 209 121 50 48 62 65 57 82 -3 12 -9 22 -14 22 -5 0 -9 3 -9 8
0 4 14 7 32 7 18 0 33 6 36 14 3 10 0 12 -12 8 -11 -5 -16 -1 -16 13 0 11 6
21 13 22 6 0 17 2 22 3 6 2 15 3 20 4 6 1 2 8 -8 16 -24 17 -15 51 15 58 21 6
21 7 -5 27 -15 12 -27 27 -27 33 0 7 7 4 14 -5 17 -23 26 -13 26 30 0 20 8 44
17 54 15 17 15 21 3 29 -11 7 -12 11 -3 17 6 4 11 16 10 27 -1 11 3 19 11 18
6 -2 12 4 12 12 0 9 -6 12 -16 8 -14 -5 -14 -2 2 22 10 16 17 41 16 56 -2 17
3 31 14 37 10 5 12 12 6 15 -6 4 -2 22 10 47 11 23 18 43 15 46 -8 8 -133
-113 -222 -216 -95 -109 -150 -188 -173 -252 -17 -48 -30 -56 -66 -42 -9 3
-16 10 -16 16 0 5 4 7 9 4 15 -10 3 281 -15 341 -6 22 15 35 62 37 20 1 88 49
114 81 10 13 9 15 -8 15 -11 0 -23 7 -26 16 -9 24 0 29 19 10 13 -12 21 -14
36 -5 19 10 20 19 2 67 -3 7 3 12 17 12 19 0 20 2 10 15 -9 11 -9 22 -1 47 8
21 8 35 1 42 -14 14 -13 27 2 24 9 -2 12 7 10 26 -2 17 0 26 6 22 6 -3 13 -2
17 4 3 6 -1 13 -10 16 -12 5 -13 9 -4 20 8 10 9 21 2 37 -6 12 -7 31 -3 42 4
11 4 45 0 75 -5 33 -4 60 2 67 7 9 5 15 -6 19 -17 6 -22 35 -9 48 5 4 6 34 5
66 -2 32 2 68 8 80 15 28 4 39 -14 14 -29 -38 -134 -220 -174 -300 -44 -88
-62 -163 -62 -261 0 -44 -4 -63 -12 -63 -23 0 -37 15 -40 42 -2 15 -7 30 -11
34 -4 4 -7 19 -7 34 0 15 -9 35 -20 45 -15 14 -17 21 -9 32 9 10 8 18 -5 32
-10 11 -16 25 -15 33 3 13 -28 103 -41 123 -4 6 -9 24 -12 42 -5 37 16 49 43
26 15 -13 20 -11 42 13 27 28 27 44 1 44 -21 0 -17 17 5 23 16 4 19 11 15 41
-3 26 0 36 10 36 24 0 38 26 21 40 -12 10 -12 14 -1 25 7 7 12 31 12 54 -1 23
4 43 9 45 6 2 6 10 -1 23 -7 10 -17 46 -24 79 -7 32 -17 65 -22 72 -7 8 -7 16
1 26 8 10 8 16 -3 25 -7 6 -19 39 -26 72 -7 33 -20 68 -28 76 -11 11 -15 34
-14 85 2 81 -8 81 -43 1 -51 -115 -66 -182 -72 -328 -3 -77 -1 -163 4 -192 6
-29 7 -50 2 -48 -4 3 -9 -1 -12 -7 -7 -21 -39 4 -51 39 -6 17 -16 28 -23 26
-8 -3 -13 3 -13 14 0 30 -24 73 -37 68 -7 -2 -12 -1 -12 3 4 24 -3 44 -21 59
-11 10 -20 23 -20 29 0 7 -11 26 -25 42 -14 17 -25 35 -25 41 0 6 -15 25 -33
44 -41 41 -57 88 -29 84 10 -1 41 -22 68 -45 27 -23 54 -42 61 -42 21 0 27 42
8 56 -12 9 -15 19 -9 36 4 13 6 55 5 93 -2 55 -7 75 -24 93 -11 12 -15 22 -9
22 7 0 12 -5 12 -12 0 -9 3 -9 11 -1 9 9 7 22 -5 53 -9 23 -14 45 -11 49 2 5
-4 16 -15 26 -11 10 -20 26 -20 36 0 10 -5 21 -10 24 -13 8 -90 126 -90 137 0
4 -7 8 -15 8 -8 0 -15 9 -15 20 0 14 -5 18 -17 13 -11 -4 -14 -3 -9 5 4 7 2
12 -3 12 -6 0 -11 7 -11 15 0 13 -10 39 -39 105 -9 19 -10 -26 -7 -190 5 -241
17 -300 80 -399 19 -30 32 -61 29 -68 -8 -21 -23 -15 -24 10 l0 22 -10 -24 -9
-23 -25 23 c-13 13 -20 25 -15 27 6 2 5 12 -1 24 -9 16 -13 18 -19 7 -12 -18
-40 6 -40 33 0 11 -9 22 -20 25 -11 3 -20 11 -20 18 0 7 -15 24 -34 39 -19 14
-53 45 -75 68 -36 37 -40 47 -34 73 4 17 6 43 5 58 -1 16 3 25 8 22 6 -4 10 1
10 9 0 8 -5 18 -11 21 -5 4 -9 17 -8 28 1 12 -3 33 -8 47 -6 14 -9 29 -6 33 3
4 -6 18 -19 30 -12 12 -29 35 -37 50 -24 46 -149 170 -165 164 -9 -4 -16 2
-19 15 -3 11 -10 17 -16 13 -6 -3 -11 0 -11 9 0 8 -13 20 -29 27 -15 7 -40 32
-56 56 -33 53 -46 55 -38 6 21 -135 98 -325 154 -379 27 -26 40 -52 19 -39 -5
3 -19 0 -31 -7 -17 -10 -23 -10 -26 0 -3 6 -11 12 -18 12 -8 0 -18 6 -22 13
-4 6 -12 12 -18 12 -16 1 -106 58 -147 94 -30 26 -38 40 -34 57 4 16 -1 26
-20 39 -17 11 -22 20 -16 24 12 7 -68 101 -86 101 -5 0 -15 7 -23 16 -7 8 -21
13 -31 11 -10 -3 -16 -1 -13 3 3 5 1 11 -5 15 -5 3 -10 0 -10 -7 0 -8 -4 -7
-10 4 -12 19 -70 51 -70 38 0 -11 -124 30 -128 42 -2 4 -10 8 -17 8 -8 0 -26
11 -41 25 -28 26 -54 33 -54 13z m210 -149 c0 -5 -4 -9 -10 -9 -5 0 -10 7 -10
16 0 8 5 12 10 9 6 -3 10 -10 10 -16z m65 11 c3 -5 1 -10 -4 -10 -6 0 -11 5
-11 10 0 6 2 10 4 10 3 0 8 -4 11 -10z m62 -82 c-3 -8 -6 -5 -6 6 -1 11 2 17
5 13 3 -3 4 -12 1 -19z m-2237 -289 c0 -6 -4 -7 -10 -4 -5 3 -10 11 -10 16 0
6 5 7 10 4 6 -3 10 -11 10 -16z m306 -66 c-7 -7 -26 7 -26 19 0 6 6 6 15 -2 9
-7 13 -15 11 -17z m2264 2 c0 -9 -6 -12 -15 -9 -8 4 -15 10 -15 15 0 5 7 9 15
9 8 0 15 -7 15 -15z m-333 -57 c-3 -8 -6 -5 -6 6 -1 11 2 17 5 13 3 -3 4 -12
1 -19z m93 -8 c0 -5 -2 -10 -4 -10 -3 0 -8 5 -11 10 -3 6 -1 10 4 10 6 0 11
-4 11 -10z m-2810 -221 c0 -6 -4 -7 -10 -4 -5 3 -10 11 -10 16 0 6 5 7 10 4 6
-3 10 -11 10 -16z m610 11 c0 -5 -4 -10 -10 -10 -5 0 -10 5 -10 10 0 6 5 10
10 10 6 0 10 -4 10 -10z m2560 0 c0 -5 -4 -10 -10 -10 -5 0 -10 5 -10 10 0 6
5 10 10 10 6 0 10 -4 10 -10z m670 -11 c0 -6 -4 -7 -10 -4 -5 3 -10 11 -10 16
0 6 5 7 10 4 6 -3 10 -11 10 -16z m-305 1 c3 -5 2 -10 -4 -10 -5 0 -13 5 -16
10 -3 6 -2 10 4 10 5 0 13 -4 16 -10z m-3135 -70 c0 -5 -2 -10 -4 -10 -3 0 -8
5 -11 10 -3 6 -1 10 4 10 6 0 11 -4 11 -10z m-123 -252 c-3 -8 -6 -5 -6 6 -1
11 2 17 5 13 3 -3 4 -12 1 -19z m-37 -24 c0 -8 -5 -12 -10 -9 -6 4 -8 11 -5
16 9 14 15 11 15 -7z m-343 -16 c-3 -8 -6 -5 -6 6 -1 11 2 17 5 13 3 -3 4 -12
1 -19z m-323 -194 c3 -8 2 -12 -4 -9 -6 3 -10 10 -10 16 0 14 7 11 14 -7z
m450 -10 c3 -8 2 -12 -4 -9 -6 3 -10 10 -10 16 0 14 7 11 14 -7z m3846 -5 c0
-5 -4 -9 -10 -9 -5 0 -10 7 -10 16 0 8 5 12 10 9 6 -3 10 -10 10 -16z m65 11
c3 -5 1 -10 -4 -10 -6 0 -11 5 -11 10 0 6 2 10 4 10 3 0 8 -4 11 -10z m62 -82
c-3 -8 -6 -5 -6 6 -1 11 2 17 5 13 3 -3 4 -12 1 -19z m-4352 -128 c3 -5 1 -10
-4 -10 -6 0 -11 5 -11 10 0 6 2 10 4 10 3 0 8 -4 11 -10z m-80 -10 c3 -5 1
-10 -4 -10 -6 0 -11 5 -11 10 0 6 2 10 4 10 3 0 8 -4 11 -10z m4530 -280 c3
-5 2 -10 -4 -10 -5 0 -13 5 -16 10 -3 6 -2 10 4 10 5 0 13 -4 16 -10z m-4545
-55 c0 -8 -2 -15 -4 -15 -2 0 -6 7 -10 15 -3 8 -1 15 4 15 6 0 10 -7 10 -15z
m-180 -290 c7 -9 8 -15 2 -15 -5 0 -12 7 -16 15 -3 8 -4 15 -2 15 2 0 9 -7 16
-15z m204 -431 c3 -8 2 -12 -4 -9 -6 3 -10 10 -10 16 0 14 7 11 14 -7z m4516
-504 c0 -5 -2 -10 -4 -10 -3 0 -8 5 -11 10 -3 6 -1 10 4 10 6 0 11 -4 11 -10z
m-20 -140 c0 -5 -4 -10 -10 -10 -5 0 -10 5 -10 10 0 6 5 10 10 10 6 0 10 -4
10 -10z m-4375 -80 c3 -5 2 -10 -4 -10 -5 0 -13 5 -16 10 -3 6 -2 10 4 10 5 0
13 -4 16 -10z m4545 -70 c0 -5 -2 -10 -4 -10 -3 0 -8 5 -11 10 -3 6 -1 10 4
10 6 0 11 -4 11 -10z m408 -15 c-3 -3 -9 2 -12 12 -6 14 -5 15 5 6 7 -7 10
-15 7 -18z m-378 -43 c0 -15 -2 -15 -10 -2 -13 20 -13 33 0 25 6 -3 10 -14 10
-23z m-4900 3 c7 -9 8 -15 2 -15 -5 0 -12 7 -16 15 -3 8 -4 15 -2 15 2 0 9 -7
16 -15z m5120 0 c7 -9 8 -15 2 -15 -5 0 -12 7 -16 15 -3 8 -4 15 -2 15 2 0 9
-7 16 -15z m106 -11 c-4 -9 -9 -15 -11 -12 -3 3 -3 13 1 22 4 9 9 15 11 12 3
-3 3 -13 -1 -22z m-386 6 c0 -5 -2 -10 -4 -10 -3 0 -8 5 -11 10 -3 6 -1 10 4
10 6 0 11 -4 11 -10z m-340 -441 c0 -5 -4 -9 -10 -9 -5 0 -10 7 -10 16 0 8 5
12 10 9 6 -3 10 -10 10 -16z m130 -69 c0 -5 -2 -10 -4 -10 -3 0 -8 5 -11 10
-3 6 -1 10 4 10 6 0 11 -4 11 -10z m-166 -46 c3 -8 2 -12 -4 -9 -6 3 -10 10
-10 16 0 14 7 11 14 -7z m-3894 -14 c0 -5 -2 -10 -4 -10 -3 0 -8 5 -11 10 -3
6 -1 10 4 10 6 0 11 -4 11 -10z m-375 -80 c3 -5 1 -10 -4 -10 -6 0 -11 5 -11
10 0 6 2 10 4 10 3 0 8 -4 11 -10z m4783 -75 c-3 -3 -9 2 -12 12 -6 14 -5 15
5 6 7 -7 10 -15 7 -18z m-4538 -75 c0 -5 -2 -10 -4 -10 -3 0 -8 5 -11 10 -3 6
-1 10 4 10 6 0 11 -4 11 -10z m440 -130 c0 -5 -2 -10 -4 -10 -3 0 -8 5 -11 10
-3 6 -1 10 4 10 6 0 11 -4 11 -10z m-20 -140 c0 -5 -5 -10 -11 -10 -5 0 -7 5
-4 10 3 6 8 10 11 10 2 0 4 -4 4 -10z m3310 -82 c0 -13 -23 -5 -28 10 -2 7 2
10 12 6 9 -3 16 -11 16 -16z m289 -57 c-15 -5 -22 6 -14 19 6 9 10 9 16 -1 5
-8 4 -15 -2 -18z m-4029 -19 c0 -8 -1 -13 -3 -11 -1 2 -9 12 -16 22 -12 15
-12 17 3 11 9 -3 16 -13 16 -22z m600 8 c0 -5 -2 -10 -4 -10 -3 0 -8 5 -11 10
-3 6 -1 10 4 10 6 0 11 -4 11 -10z m-30 -60 c0 -5 -2 -10 -4 -10 -3 0 -8 5
-11 10 -3 6 -1 10 4 10 6 0 11 -4 11 -10z m2560 0 c0 -5 -2 -10 -4 -10 -3 0
-8 5 -11 10 -3 6 -1 10 4 10 6 0 11 -4 11 -10z m-2036 -405 c3 -8 1 -15 -4
-15 -6 0 -10 7 -10 15 0 8 2 15 4 15 2 0 6 -7 10 -15z m-186 -30 c-3 -3 -9 2
-12 12 -6 14 -5 15 5 6 7 -7 10 -15 7 -18z m1426 9 c3 -8 2 -12 -4 -9 -6 3
-10 10 -10 16 0 14 7 11 14 -7z m-1694 -15 c0 -6 -4 -7 -10 -4 -5 3 -10 11
-10 16 0 6 5 7 10 4 6 -3 10 -11 10 -16z m-160 -49 c0 -5 -2 -10 -4 -10 -3 0
-8 5 -11 10 -3 6 -1 10 4 10 6 0 11 -4 11 -10z m1627 -22 c-3 -8 -6 -5 -6 6
-1 11 2 17 5 13 3 -3 4 -12 1 -19z m-817 -288 c0 -5 -2 -10 -4 -10 -3 0 -8 5
-11 10 -3 6 -1 10 4 10 6 0 11 -4 11 -10z"/>
<path d="M4330 6305 c-281 -41 -520 -122 -675 -228 -225 -154 -318 -368 -319
-732 0 -164 8 -226 61 -450 58 -243 48 -348 -42 -454 -25 -29 -45 -63 -45 -75
0 -26 65 -123 132 -195 43 -47 49 -60 79 -173 20 -77 63 -191 112 -303 43 -99
119 -272 169 -385 49 -113 98 -223 108 -245 15 -34 37 -52 157 -127 84 -53
151 -88 167 -88 31 0 30 -5 11 90 -87 431 -115 602 -115 703 0 59 1 107 3 107
13 -1 104 -33 138 -49 23 -12 49 -21 56 -21 10 0 13 -63 13 -320 0 -247 4
-341 16 -412 9 -51 17 -94 19 -96 4 -4 327 -3 331 1 16 16 27 185 31 480 3
290 6 347 18 347 8 0 30 9 49 19 19 11 53 25 76 31 23 6 48 14 56 17 18 7 20
-37 2 -55 -9 -9 -9 -12 0 -12 25 0 12 -134 -38 -394 -68 -353 -80 -420 -80
-428 0 -5 12 -8 26 -8 16 0 82 35 167 88 120 75 142 93 157 127 10 22 54 123
98 225 44 102 94 217 112 255 101 219 146 334 176 448 32 121 36 131 81 178
65 68 133 168 133 196 0 13 -17 42 -39 66 -47 51 -64 85 -81 156 -15 64 -10
118 30 288 78 338 85 523 29 773 -58 264 -213 422 -535 550 -242 97 -600 141
-844 105z m-443 -1556 c136 -44 310 -101 386 -126 l138 -45 -3 -40 c-2 -39 -3
-40 -98 -94 l-96 -54 -286 0 -285 0 -34 78 c-31 70 -34 86 -34 172 0 87 3 99
28 143 16 26 30 47 32 47 2 0 115 -36 252 -81z m1591 27 c18 -34 26 -69 30
-121 4 -67 1 -81 -33 -169 l-38 -96 -287 0 -287 0 -94 53 c-93 52 -94 53 -97
94 l-3 42 358 116 c197 64 369 120 383 125 36 12 40 9 68 -44z m-1010 -615
l-3 -229 -64 24 c-35 13 -65 24 -67 24 -2 0 -4 28 -4 63 0 56 6 76 67 205 37
78 69 142 71 142 2 0 2 -103 0 -229z m280 -107 l4 -71 -69 -24 -70 -25 -1 230
-1 231 66 -135 c58 -119 67 -143 71 -206z"/>
<path d="M6430 6281 c0 -6 4 -13 10 -16 6 -3 7 1 4 9 -7 18 -14 21 -14 7z"/>
<path d="M5685 2440 c3 -5 10 -10 16 -10 5 0 9 5 9 10 0 6 -7 10 -16 10 -8 0
-12 -4 -9 -10z"/>
<path d="M5265 2421 c-3 -5 -1 -12 4 -15 5 -3 11 1 15 9 6 16 -9 21 -19 6z"/>
</g>
</svg>
